<?xml version="1.0" encoding="UTF-8"?>
<!DOCTYPE svg PUBLIC "-//W3C//DTD SVG 1.1//EN" "http://www.w3.org/Graphics/SVG/1.1/DTD/svg11.dtd">
<!-- Creator: CorelDRAW X7 -->
<svg xmlns="http://www.w3.org/2000/svg" xml:space="preserve" width="439.147mm" height="115.06mm" version="1.1" style="shape-rendering:geometricPrecision; text-rendering:geometricPrecision; image-rendering:optimizeQuality; fill-rule:evenodd; clip-rule:evenodd"
viewBox="0 0 43077 11286"
 xmlns:xlink="http://www.w3.org/1999/xlink">
 <defs>
  <style type="text/css">
   <![CDATA[
    .fil3 {fill:#4C4C4D;fill-rule:nonzero}
    .fil0 {fill:#4B4B4D;fill-rule:nonzero}
    .fil1 {fill:#90C74A;fill-rule:nonzero}
    .fil2 {fill:#38ACE2;fill-rule:nonzero}
   ]]>
  </style>
 </defs>
 <g id="Capa_x0020_1">
  <metadata id="CorelCorpID_0Corel-Layer"/>
  <path class="fil0" d="M19196 9054l-3899 0c-455,0 -842,-74 -1159,-222 -318,-148 -576,-361 -775,-639 -198,-278 -341,-618 -428,-1018 -86,-401 -130,-858 -130,-1370 0,-1004 195,-1789 585,-2356 390,-567 993,-850 1809,-850l3997 0 0 1451 -3412 0c-231,0 -424,27 -580,81 -155,55 -281,127 -379,217 -97,90 -169,199 -216,325 -47,126 -74,265 -81,417l4668 0 0 1473 -4668 0c36,679 454,1018 1256,1018l3412 0 0 1473zm1072 -6477l2502 6477 2328 0 2405 -6477 -1798 0 -1755 4820 -1884 -4820 -1798 0zm14686 6477l-3899 0c-455,0 -841,-74 -1159,-222 -318,-148 -576,-361 -774,-639 -199,-278 -341,-618 -428,-1018 -87,-401 -130,-858 -130,-1370 0,-1004 195,-1789 585,-2356 390,-567 993,-850 1808,-850l3997 0 0 1451 -3412 0c-231,0 -424,27 -579,81 -155,55 -282,127 -379,217 -98,90 -170,199 -217,325 -47,126 -74,265 -81,417l4668 0 0 1473 -4668 0c36,679 455,1018 1256,1018l3412 0 0 1473zm8123 0l0 -3780c0,-332 -54,-648 -163,-948 -108,-299 -278,-590 -509,-872 -216,-296 -473,-512 -769,-649 -296,-138 -613,-206 -953,-206l-4624 0 0 6455 1722 0 0 -5004 2252 0c289,0 522,40 699,119 177,80 316,184 417,314 101,130 170,282 206,455 36,174 54,354 54,542l0 3574 1668 0z"/>
  <polygon class="fil1" points="7357,3094 8579,1500 0,318 6185,11286 2620,2351 "/>
  <polygon class="fil2" points="6883,7564 5190,3066 3210,2750 6475,10909 12681,0 12680,0 "/>
  <polygon class="fil3" points="6338,5116 6984,6870 12249,0 4980,0 122,19 9279,1279 "/>
 </g>
</svg>
