<?xml version="1.0" encoding="UTF-8"?>
<!DOCTYPE svg PUBLIC "-//W3C//DTD SVG 1.1//EN" "http://www.w3.org/Graphics/SVG/1.1/DTD/svg11.dtd">
<!-- Creator: CorelDRAW X7 -->
<svg xmlns="http://www.w3.org/2000/svg" xml:space="preserve" width="439.147mm" height="115.06mm" version="1.1" style="shape-rendering:geometricPrecision; text-rendering:geometricPrecision; image-rendering:optimizeQuality; fill-rule:evenodd; clip-rule:evenodd"
viewBox="0 0 43250 11332"
 xmlns:xlink="http://www.w3.org/1999/xlink">
 <defs>
  <style type="text/css">
   <![CDATA[
    .fil0 {fill:#FEFEFE;fill-rule:nonzero}
   ]]>
  </style>
 </defs>
 <g id="Capa_x0020_1">
  <metadata id="CorelCorpID_0Corel-Layer"/>
  <path class="fil0" d="M19272 9090l-3914 0c-457,0 -845,-74 -1164,-223 -319,-148 -578,-362 -777,-641 -199,-279 -343,-620 -430,-1022 -87,-403 -130,-861 -130,-1376 0,-1008 196,-1796 587,-2365 392,-569 997,-854 1816,-854l4012 0 0 1457 -3425 0c-232,0 -426,28 -582,82 -155,54 -282,127 -380,217 -98,91 -171,200 -218,327 -47,127 -74,266 -81,418l4686 0 0 1479 -4686 0c36,682 457,1022 1261,1022l3425 0 0 1479zm1077 -6502l2512 6502 2338 0 2414 -6502 -1805 0 -1762 4838 -1892 -4838 -1805 0zm14745 6502l-3915 0c-456,0 -844,-74 -1163,-223 -319,-148 -578,-362 -778,-641 -199,-279 -342,-620 -429,-1022 -87,-403 -131,-861 -131,-1376 0,-1008 196,-1796 588,-2365 391,-569 996,-854 1816,-854l4012 0 0 1457 -3425 0c-232,0 -426,28 -582,82 -156,54 -283,127 -381,217 -97,91 -170,200 -217,327 -47,127 -74,266 -82,418l4687 0 0 1479 -4687 0c37,682 457,1022 1262,1022l3425 0 0 1479zm8156 0l0 -3795c0,-333 -55,-650 -164,-951 -108,-301 -279,-593 -511,-876 -217,-297 -474,-514 -772,-652 -297,-138 -616,-207 -957,-207l-4643 0 0 6481 1729 0 0 -5024 2262 0c290,0 524,40 701,120 178,80 318,185 419,315 102,131 170,283 207,457 36,174 54,355 54,544l0 3588 1675 0z"/>
  <polygon class="fil0" points="7387,3106 8613,1506 0,320 6210,11332 2631,2361 "/>
  <polygon class="fil0" points="6910,7594 5211,3078 3223,2761 6501,10953 12732,0 12731,0 "/>
  <polygon class="fil0" points="6364,5136 7012,6897 12298,0 5000,0 122,19 9316,1284 "/>
 </g>
</svg>
